<svg xmlns="http://www.w3.org/2000/svg" version="1.1" xmlns:xlink="http://www.w3.org/1999/xlink" xmlns:svgjs="http://svgjs.dev/svgjs" width="180" height="180" preserveAspectRatio="none" viewBox="0 0 180 180"><g mask="url(&quot;#SvgjsMask2508&quot;)" fill="none"><rect width="180" height="180" x="0" y="0" fill="rgba(141, 35, 15, 1)"></rect><use xlink:href="#SvgjsG2512" transform="translate(0, 0)" fill="rgba(201, 158, 16, 1)"></use></g><defs><mask id="SvgjsMask2508"><rect width="180" height="180" fill="#ffffff"></rect></mask><g id="SvgjsG2509"><path d="M7.926 0C3.552-0.003 0.004 3.58 0 7.996 0.004 12.419 3.552 16.002 7.926 16c4.377 0.002 7.924-3.581 7.927-8.004C15.85 3.58 12.303-0.003 7.926 0z m0 14.157c-3.366 0-6.095-2.757-6.091-6.161C1.831 4.598 4.56 1.842 7.926 1.843c3.368-0.001 6.098 2.756 6.102 6.153C14.024 11.4 11.294 14.157 7.927 14.157z"></path><path d="M7.104 10.825l1.792-0.008V9.432c-0.004-0.376 0.171-0.732 0.64-1.038 0.47-0.309 1.781-0.933 1.783-2.579-0.002-1.639-1.378-2.768-2.536-3.011-1.156-0.236-2.409-0.078-3.297 0.9-0.798 0.868-0.966 1.559-0.969 3.08h1.791v-0.354c-0.004-0.81 0.09-1.666 1.246-1.904 0.636-0.124 1.229 0.074 1.584 0.416 0.4 0.396 0.403 1.282-0.242 1.721l-1.004 0.684c-0.585 0.379-0.786 0.797-0.788 1.41v2.068z m-0.008 2.536V11.526h1.808v1.835z"></path></g><g id="SvgjsG2510"><path d="M5.534 5.272L8.008 0l2.474 5.272 5.534 0.845-4.004 4.103 0.945 5.795L8.008 13.279 3.06 16.015l0.945-5.795L0.001 6.117z"></path></g><g id="SvgjsG2511"><path d="M13.165 5.485L5.295 15.96l1.814-7.368-4.222 0.071L9.733 0 7.677 5.489l5.488-0.004z" fill-rule="evenodd"></path></g><g id="SvgjsG2512"><use xlink:href="#SvgjsG2509" transform="translate(0, 0) scale(1.2)" fill="rgba(201, 158, 16, 1)"></use><use xlink:href="#SvgjsG2510" transform="translate(0, 28.799999999999997) scale(1.2)" fill="rgba(201, 158, 16, 1)"></use><use xlink:href="#SvgjsG2511" transform="translate(0, 57.599999999999994) scale(1.2)" fill="rgba(201, 158, 16, 1)"></use><use xlink:href="#SvgjsG2509" transform="translate(0, 86.39999999999999) scale(1.2)" fill="rgba(201, 158, 16, 1)"></use><use xlink:href="#SvgjsG2510" transform="translate(0, 115.19999999999999) scale(1.2)" fill="rgba(201, 158, 16, 1)"></use><use xlink:href="#SvgjsG2511" transform="translate(0, 144) scale(1.2)" fill="rgba(201, 158, 16, 1)"></use><use xlink:href="#SvgjsG2509" transform="translate(0, 172.79999999999998) scale(1.2)" fill="rgba(201, 158, 16, 1)"></use><use xlink:href="#SvgjsG2510" transform="translate(28.799999999999997, 0) scale(1.2)" fill="rgba(201, 158, 16, 1)"></use><use xlink:href="#SvgjsG2511" transform="translate(28.799999999999997, 28.799999999999997) scale(1.2)" fill="rgba(201, 158, 16, 1)"></use><use xlink:href="#SvgjsG2509" transform="translate(28.799999999999997, 57.599999999999994) scale(1.2)" fill="rgba(201, 158, 16, 1)"></use><use xlink:href="#SvgjsG2510" transform="translate(28.799999999999997, 86.39999999999999) scale(1.2)" fill="rgba(201, 158, 16, 1)"></use><use xlink:href="#SvgjsG2511" transform="translate(28.799999999999997, 115.19999999999999) scale(1.2)" fill="rgba(201, 158, 16, 1)"></use><use xlink:href="#SvgjsG2509" transform="translate(28.799999999999997, 144) scale(1.2)" fill="rgba(201, 158, 16, 1)"></use><use xlink:href="#SvgjsG2510" transform="translate(28.799999999999997, 172.79999999999998) scale(1.2)" fill="rgba(201, 158, 16, 1)"></use><use xlink:href="#SvgjsG2511" transform="translate(57.599999999999994, 0) scale(1.2)" fill="rgba(201, 158, 16, 1)"></use><use xlink:href="#SvgjsG2509" transform="translate(57.599999999999994, 28.799999999999997) scale(1.2)" fill="rgba(201, 158, 16, 1)"></use><use xlink:href="#SvgjsG2510" transform="translate(57.599999999999994, 57.599999999999994) scale(1.2)" fill="rgba(201, 158, 16, 1)"></use><use xlink:href="#SvgjsG2511" transform="translate(57.599999999999994, 86.39999999999999) scale(1.2)" fill="rgba(201, 158, 16, 1)"></use><use xlink:href="#SvgjsG2509" transform="translate(57.599999999999994, 115.19999999999999) scale(1.2)" fill="rgba(201, 158, 16, 1)"></use><use xlink:href="#SvgjsG2510" transform="translate(57.599999999999994, 144) scale(1.2)" fill="rgba(201, 158, 16, 1)"></use><use xlink:href="#SvgjsG2511" transform="translate(57.599999999999994, 172.79999999999998) scale(1.2)" fill="rgba(201, 158, 16, 1)"></use><use xlink:href="#SvgjsG2509" transform="translate(86.39999999999999, 0) scale(1.2)" fill="rgba(201, 158, 16, 1)"></use><use xlink:href="#SvgjsG2510" transform="translate(86.39999999999999, 28.799999999999997) scale(1.2)" fill="rgba(201, 158, 16, 1)"></use><use xlink:href="#SvgjsG2511" transform="translate(86.39999999999999, 57.599999999999994) scale(1.2)" fill="rgba(201, 158, 16, 1)"></use><use xlink:href="#SvgjsG2509" transform="translate(86.39999999999999, 86.39999999999999) scale(1.2)" fill="rgba(201, 158, 16, 1)"></use><use xlink:href="#SvgjsG2510" transform="translate(86.39999999999999, 115.19999999999999) scale(1.2)" fill="rgba(201, 158, 16, 1)"></use><use xlink:href="#SvgjsG2511" transform="translate(86.39999999999999, 144) scale(1.2)" fill="rgba(201, 158, 16, 1)"></use><use xlink:href="#SvgjsG2509" transform="translate(86.39999999999999, 172.79999999999998) scale(1.2)" fill="rgba(201, 158, 16, 1)"></use><use xlink:href="#SvgjsG2510" transform="translate(115.19999999999999, 0) scale(1.2)" fill="rgba(201, 158, 16, 1)"></use><use xlink:href="#SvgjsG2511" transform="translate(115.19999999999999, 28.799999999999997) scale(1.2)" fill="rgba(201, 158, 16, 1)"></use><use xlink:href="#SvgjsG2509" transform="translate(115.19999999999999, 57.599999999999994) scale(1.2)" fill="rgba(201, 158, 16, 1)"></use><use xlink:href="#SvgjsG2510" transform="translate(115.19999999999999, 86.39999999999999) scale(1.2)" fill="rgba(201, 158, 16, 1)"></use><use xlink:href="#SvgjsG2511" transform="translate(115.19999999999999, 115.19999999999999) scale(1.2)" fill="rgba(201, 158, 16, 1)"></use><use xlink:href="#SvgjsG2509" transform="translate(115.19999999999999, 144) scale(1.2)" fill="rgba(201, 158, 16, 1)"></use><use xlink:href="#SvgjsG2510" transform="translate(115.19999999999999, 172.79999999999998) scale(1.2)" fill="rgba(201, 158, 16, 1)"></use><use xlink:href="#SvgjsG2511" transform="translate(144, 0) scale(1.2)" fill="rgba(201, 158, 16, 1)"></use><use xlink:href="#SvgjsG2509" transform="translate(144, 28.799999999999997) scale(1.2)" fill="rgba(201, 158, 16, 1)"></use><use xlink:href="#SvgjsG2510" transform="translate(144, 57.599999999999994) scale(1.2)" fill="rgba(201, 158, 16, 1)"></use><use xlink:href="#SvgjsG2511" transform="translate(144, 86.39999999999999) scale(1.2)" fill="rgba(201, 158, 16, 1)"></use><use xlink:href="#SvgjsG2509" transform="translate(144, 115.19999999999999) scale(1.2)" fill="rgba(201, 158, 16, 1)"></use><use xlink:href="#SvgjsG2510" transform="translate(144, 144) scale(1.2)" fill="rgba(201, 158, 16, 1)"></use><use xlink:href="#SvgjsG2511" transform="translate(144, 172.79999999999998) scale(1.2)" fill="rgba(201, 158, 16, 1)"></use><use xlink:href="#SvgjsG2509" transform="translate(172.79999999999998, 0) scale(1.2)" fill="rgba(201, 158, 16, 1)"></use><use xlink:href="#SvgjsG2510" transform="translate(172.79999999999998, 28.799999999999997) scale(1.2)" fill="rgba(201, 158, 16, 1)"></use><use xlink:href="#SvgjsG2511" transform="translate(172.79999999999998, 57.599999999999994) scale(1.2)" fill="rgba(201, 158, 16, 1)"></use><use xlink:href="#SvgjsG2509" transform="translate(172.79999999999998, 86.39999999999999) scale(1.2)" fill="rgba(201, 158, 16, 1)"></use><use xlink:href="#SvgjsG2510" transform="translate(172.79999999999998, 115.19999999999999) scale(1.2)" fill="rgba(201, 158, 16, 1)"></use><use xlink:href="#SvgjsG2511" transform="translate(172.79999999999998, 144) scale(1.2)" fill="rgba(201, 158, 16, 1)"></use><use xlink:href="#SvgjsG2509" transform="translate(172.79999999999998, 172.79999999999998) scale(1.2)" fill="rgba(201, 158, 16, 1)"></use><use xlink:href="#SvgjsG2510" transform="translate(201.59999999999997, 0) scale(1.2)" fill="rgba(201, 158, 16, 1)"></use><use xlink:href="#SvgjsG2511" transform="translate(201.59999999999997, 28.799999999999997) scale(1.2)" fill="rgba(201, 158, 16, 1)"></use><use xlink:href="#SvgjsG2509" transform="translate(201.59999999999997, 57.599999999999994) scale(1.2)" fill="rgba(201, 158, 16, 1)"></use><use xlink:href="#SvgjsG2510" transform="translate(201.59999999999997, 86.39999999999999) scale(1.2)" fill="rgba(201, 158, 16, 1)"></use><use xlink:href="#SvgjsG2511" transform="translate(201.59999999999997, 115.19999999999999) scale(1.2)" fill="rgba(201, 158, 16, 1)"></use><use xlink:href="#SvgjsG2509" transform="translate(201.59999999999997, 144) scale(1.2)" fill="rgba(201, 158, 16, 1)"></use><use xlink:href="#SvgjsG2510" transform="translate(201.59999999999997, 172.79999999999998) scale(1.2)" fill="rgba(201, 158, 16, 1)"></use><use xlink:href="#SvgjsG2511" transform="translate(230.39999999999998, 0) scale(1.2)" fill="rgba(201, 158, 16, 1)"></use><use xlink:href="#SvgjsG2509" transform="translate(230.39999999999998, 28.799999999999997) scale(1.2)" fill="rgba(201, 158, 16, 1)"></use><use xlink:href="#SvgjsG2510" transform="translate(230.39999999999998, 57.599999999999994) scale(1.2)" fill="rgba(201, 158, 16, 1)"></use><use xlink:href="#SvgjsG2511" transform="translate(230.39999999999998, 86.39999999999999) scale(1.2)" fill="rgba(201, 158, 16, 1)"></use><use xlink:href="#SvgjsG2509" transform="translate(230.39999999999998, 115.19999999999999) scale(1.2)" fill="rgba(201, 158, 16, 1)"></use><use xlink:href="#SvgjsG2510" transform="translate(230.39999999999998, 144) scale(1.2)" fill="rgba(201, 158, 16, 1)"></use><use xlink:href="#SvgjsG2511" transform="translate(230.39999999999998, 172.79999999999998) scale(1.2)" fill="rgba(201, 158, 16, 1)"></use></g></defs></svg>
