<svg xmlns="http://www.w3.org/2000/svg" version="1.1" xmlns:xlink="http://www.w3.org/1999/xlink" xmlns:svgjs="http://svgjs.dev/svgjs" width="2400" height="1480" preserveAspectRatio="none" viewBox="0 0 2400 1480"><g mask="url(&quot;#SvgjsMask2663&quot;)" fill="none"><rect width="2400" height="1480" x="0" y="0" fill="rgba(141, 35, 15, 1)"></rect><use xlink:href="#SvgjsG2667" transform="translate(0, 0)" fill="rgba(201, 158, 16, 1)"></use><use xlink:href="#SvgjsG2667" transform="translate(0, 480)" fill="rgba(201, 158, 16, 1)"></use><use xlink:href="#SvgjsG2667" transform="translate(0, 960)" fill="rgba(201, 158, 16, 1)"></use><use xlink:href="#SvgjsG2667" transform="translate(0, 1440)" fill="rgba(201, 158, 16, 1)"></use><use xlink:href="#SvgjsG2667" transform="translate(480, 0)" fill="rgba(201, 158, 16, 1)"></use><use xlink:href="#SvgjsG2667" transform="translate(480, 480)" fill="rgba(201, 158, 16, 1)"></use><use xlink:href="#SvgjsG2667" transform="translate(480, 960)" fill="rgba(201, 158, 16, 1)"></use><use xlink:href="#SvgjsG2667" transform="translate(480, 1440)" fill="rgba(201, 158, 16, 1)"></use><use xlink:href="#SvgjsG2667" transform="translate(960, 0)" fill="rgba(201, 158, 16, 1)"></use><use xlink:href="#SvgjsG2667" transform="translate(960, 480)" fill="rgba(201, 158, 16, 1)"></use><use xlink:href="#SvgjsG2667" transform="translate(960, 960)" fill="rgba(201, 158, 16, 1)"></use><use xlink:href="#SvgjsG2667" transform="translate(960, 1440)" fill="rgba(201, 158, 16, 1)"></use><use xlink:href="#SvgjsG2667" transform="translate(1440, 0)" fill="rgba(201, 158, 16, 1)"></use><use xlink:href="#SvgjsG2667" transform="translate(1440, 480)" fill="rgba(201, 158, 16, 1)"></use><use xlink:href="#SvgjsG2667" transform="translate(1440, 960)" fill="rgba(201, 158, 16, 1)"></use><use xlink:href="#SvgjsG2667" transform="translate(1440, 1440)" fill="rgba(201, 158, 16, 1)"></use><use xlink:href="#SvgjsG2667" transform="translate(1920, 0)" fill="rgba(201, 158, 16, 1)"></use><use xlink:href="#SvgjsG2667" transform="translate(1920, 480)" fill="rgba(201, 158, 16, 1)"></use><use xlink:href="#SvgjsG2667" transform="translate(1920, 960)" fill="rgba(201, 158, 16, 1)"></use><use xlink:href="#SvgjsG2667" transform="translate(1920, 1440)" fill="rgba(201, 158, 16, 1)"></use></g><defs><mask id="SvgjsMask2663"><rect width="2400" height="1480" fill="#ffffff"></rect></mask><g id="SvgjsG2664"><path d="M7.926 0C3.552-0.003 0.004 3.58 0 7.996 0.004 12.419 3.552 16.002 7.926 16c4.377 0.002 7.924-3.581 7.927-8.004C15.85 3.58 12.303-0.003 7.926 0z m0 14.157c-3.366 0-6.095-2.757-6.091-6.161C1.831 4.598 4.56 1.842 7.926 1.843c3.368-0.001 6.098 2.756 6.102 6.153C14.024 11.4 11.294 14.157 7.927 14.157z"></path><path d="M7.104 10.825l1.792-0.008V9.432c-0.004-0.376 0.171-0.732 0.64-1.038 0.47-0.309 1.781-0.933 1.783-2.579-0.002-1.639-1.378-2.768-2.536-3.011-1.156-0.236-2.409-0.078-3.297 0.9-0.798 0.868-0.966 1.559-0.969 3.08h1.791v-0.354c-0.004-0.81 0.09-1.666 1.246-1.904 0.636-0.124 1.229 0.074 1.584 0.416 0.4 0.396 0.403 1.282-0.242 1.721l-1.004 0.684c-0.585 0.379-0.786 0.797-0.788 1.41v2.068z m-0.008 2.536V11.526h1.808v1.835z"></path></g><g id="SvgjsG2665"><path d="M5.534 5.272L8.008 0l2.474 5.272 5.534 0.845-4.004 4.103 0.945 5.795L8.008 13.279 3.06 16.015l0.945-5.795L0.001 6.117z"></path></g><g id="SvgjsG2666"><path d="M13.165 5.485L5.295 15.96l1.814-7.368-4.222 0.071L9.733 0 7.677 5.489l5.488-0.004z" fill-rule="evenodd"></path></g><g id="SvgjsG2667"><use xlink:href="#SvgjsG2664" transform="translate(0, 0) scale(2)" fill="rgba(201, 158, 16, 1)"></use><use xlink:href="#SvgjsG2665" transform="translate(0, 48) scale(2)" fill="rgba(201, 158, 16, 1)"></use><use xlink:href="#SvgjsG2666" transform="translate(0, 96) scale(2)" fill="rgba(201, 158, 16, 1)"></use><use xlink:href="#SvgjsG2664" transform="translate(0, 144) scale(2)" fill="rgba(201, 158, 16, 1)"></use><use xlink:href="#SvgjsG2665" transform="translate(0, 192) scale(2)" fill="rgba(201, 158, 16, 1)"></use><use xlink:href="#SvgjsG2666" transform="translate(0, 240) scale(2)" fill="rgba(201, 158, 16, 1)"></use><use xlink:href="#SvgjsG2664" transform="translate(0, 288) scale(2)" fill="rgba(201, 158, 16, 1)"></use><use xlink:href="#SvgjsG2665" transform="translate(0, 336) scale(2)" fill="rgba(201, 158, 16, 1)"></use><use xlink:href="#SvgjsG2666" transform="translate(0, 384) scale(2)" fill="rgba(201, 158, 16, 1)"></use><use xlink:href="#SvgjsG2664" transform="translate(0, 432) scale(2)" fill="rgba(201, 158, 16, 1)"></use><use xlink:href="#SvgjsG2665" transform="translate(48, 0) scale(2)" fill="rgba(201, 158, 16, 1)"></use><use xlink:href="#SvgjsG2666" transform="translate(48, 48) scale(2)" fill="rgba(201, 158, 16, 1)"></use><use xlink:href="#SvgjsG2664" transform="translate(48, 96) scale(2)" fill="rgba(201, 158, 16, 1)"></use><use xlink:href="#SvgjsG2665" transform="translate(48, 144) scale(2)" fill="rgba(201, 158, 16, 1)"></use><use xlink:href="#SvgjsG2666" transform="translate(48, 192) scale(2)" fill="rgba(201, 158, 16, 1)"></use><use xlink:href="#SvgjsG2664" transform="translate(48, 240) scale(2)" fill="rgba(201, 158, 16, 1)"></use><use xlink:href="#SvgjsG2665" transform="translate(48, 288) scale(2)" fill="rgba(201, 158, 16, 1)"></use><use xlink:href="#SvgjsG2666" transform="translate(48, 336) scale(2)" fill="rgba(201, 158, 16, 1)"></use><use xlink:href="#SvgjsG2664" transform="translate(48, 384) scale(2)" fill="rgba(201, 158, 16, 1)"></use><use xlink:href="#SvgjsG2665" transform="translate(48, 432) scale(2)" fill="rgba(201, 158, 16, 1)"></use><use xlink:href="#SvgjsG2666" transform="translate(96, 0) scale(2)" fill="rgba(201, 158, 16, 1)"></use><use xlink:href="#SvgjsG2664" transform="translate(96, 48) scale(2)" fill="rgba(201, 158, 16, 1)"></use><use xlink:href="#SvgjsG2665" transform="translate(96, 96) scale(2)" fill="rgba(201, 158, 16, 1)"></use><use xlink:href="#SvgjsG2666" transform="translate(96, 144) scale(2)" fill="rgba(201, 158, 16, 1)"></use><use xlink:href="#SvgjsG2664" transform="translate(96, 192) scale(2)" fill="rgba(201, 158, 16, 1)"></use><use xlink:href="#SvgjsG2665" transform="translate(96, 240) scale(2)" fill="rgba(201, 158, 16, 1)"></use><use xlink:href="#SvgjsG2666" transform="translate(96, 288) scale(2)" fill="rgba(201, 158, 16, 1)"></use><use xlink:href="#SvgjsG2664" transform="translate(96, 336) scale(2)" fill="rgba(201, 158, 16, 1)"></use><use xlink:href="#SvgjsG2665" transform="translate(96, 384) scale(2)" fill="rgba(201, 158, 16, 1)"></use><use xlink:href="#SvgjsG2666" transform="translate(96, 432) scale(2)" fill="rgba(201, 158, 16, 1)"></use><use xlink:href="#SvgjsG2664" transform="translate(144, 0) scale(2)" fill="rgba(201, 158, 16, 1)"></use><use xlink:href="#SvgjsG2665" transform="translate(144, 48) scale(2)" fill="rgba(201, 158, 16, 1)"></use><use xlink:href="#SvgjsG2666" transform="translate(144, 96) scale(2)" fill="rgba(201, 158, 16, 1)"></use><use xlink:href="#SvgjsG2664" transform="translate(144, 144) scale(2)" fill="rgba(201, 158, 16, 1)"></use><use xlink:href="#SvgjsG2665" transform="translate(144, 192) scale(2)" fill="rgba(201, 158, 16, 1)"></use><use xlink:href="#SvgjsG2666" transform="translate(144, 240) scale(2)" fill="rgba(201, 158, 16, 1)"></use><use xlink:href="#SvgjsG2664" transform="translate(144, 288) scale(2)" fill="rgba(201, 158, 16, 1)"></use><use xlink:href="#SvgjsG2665" transform="translate(144, 336) scale(2)" fill="rgba(201, 158, 16, 1)"></use><use xlink:href="#SvgjsG2666" transform="translate(144, 384) scale(2)" fill="rgba(201, 158, 16, 1)"></use><use xlink:href="#SvgjsG2664" transform="translate(144, 432) scale(2)" fill="rgba(201, 158, 16, 1)"></use><use xlink:href="#SvgjsG2665" transform="translate(192, 0) scale(2)" fill="rgba(201, 158, 16, 1)"></use><use xlink:href="#SvgjsG2666" transform="translate(192, 48) scale(2)" fill="rgba(201, 158, 16, 1)"></use><use xlink:href="#SvgjsG2664" transform="translate(192, 96) scale(2)" fill="rgba(201, 158, 16, 1)"></use><use xlink:href="#SvgjsG2665" transform="translate(192, 144) scale(2)" fill="rgba(201, 158, 16, 1)"></use><use xlink:href="#SvgjsG2666" transform="translate(192, 192) scale(2)" fill="rgba(201, 158, 16, 1)"></use><use xlink:href="#SvgjsG2664" transform="translate(192, 240) scale(2)" fill="rgba(201, 158, 16, 1)"></use><use xlink:href="#SvgjsG2665" transform="translate(192, 288) scale(2)" fill="rgba(201, 158, 16, 1)"></use><use xlink:href="#SvgjsG2666" transform="translate(192, 336) scale(2)" fill="rgba(201, 158, 16, 1)"></use><use xlink:href="#SvgjsG2664" transform="translate(192, 384) scale(2)" fill="rgba(201, 158, 16, 1)"></use><use xlink:href="#SvgjsG2665" transform="translate(192, 432) scale(2)" fill="rgba(201, 158, 16, 1)"></use><use xlink:href="#SvgjsG2666" transform="translate(240, 0) scale(2)" fill="rgba(201, 158, 16, 1)"></use><use xlink:href="#SvgjsG2664" transform="translate(240, 48) scale(2)" fill="rgba(201, 158, 16, 1)"></use><use xlink:href="#SvgjsG2665" transform="translate(240, 96) scale(2)" fill="rgba(201, 158, 16, 1)"></use><use xlink:href="#SvgjsG2666" transform="translate(240, 144) scale(2)" fill="rgba(201, 158, 16, 1)"></use><use xlink:href="#SvgjsG2664" transform="translate(240, 192) scale(2)" fill="rgba(201, 158, 16, 1)"></use><use xlink:href="#SvgjsG2665" transform="translate(240, 240) scale(2)" fill="rgba(201, 158, 16, 1)"></use><use xlink:href="#SvgjsG2666" transform="translate(240, 288) scale(2)" fill="rgba(201, 158, 16, 1)"></use><use xlink:href="#SvgjsG2664" transform="translate(240, 336) scale(2)" fill="rgba(201, 158, 16, 1)"></use><use xlink:href="#SvgjsG2665" transform="translate(240, 384) scale(2)" fill="rgba(201, 158, 16, 1)"></use><use xlink:href="#SvgjsG2666" transform="translate(240, 432) scale(2)" fill="rgba(201, 158, 16, 1)"></use><use xlink:href="#SvgjsG2664" transform="translate(288, 0) scale(2)" fill="rgba(201, 158, 16, 1)"></use><use xlink:href="#SvgjsG2665" transform="translate(288, 48) scale(2)" fill="rgba(201, 158, 16, 1)"></use><use xlink:href="#SvgjsG2666" transform="translate(288, 96) scale(2)" fill="rgba(201, 158, 16, 1)"></use><use xlink:href="#SvgjsG2664" transform="translate(288, 144) scale(2)" fill="rgba(201, 158, 16, 1)"></use><use xlink:href="#SvgjsG2665" transform="translate(288, 192) scale(2)" fill="rgba(201, 158, 16, 1)"></use><use xlink:href="#SvgjsG2666" transform="translate(288, 240) scale(2)" fill="rgba(201, 158, 16, 1)"></use><use xlink:href="#SvgjsG2664" transform="translate(288, 288) scale(2)" fill="rgba(201, 158, 16, 1)"></use><use xlink:href="#SvgjsG2665" transform="translate(288, 336) scale(2)" fill="rgba(201, 158, 16, 1)"></use><use xlink:href="#SvgjsG2666" transform="translate(288, 384) scale(2)" fill="rgba(201, 158, 16, 1)"></use><use xlink:href="#SvgjsG2664" transform="translate(288, 432) scale(2)" fill="rgba(201, 158, 16, 1)"></use><use xlink:href="#SvgjsG2665" transform="translate(336, 0) scale(2)" fill="rgba(201, 158, 16, 1)"></use><use xlink:href="#SvgjsG2666" transform="translate(336, 48) scale(2)" fill="rgba(201, 158, 16, 1)"></use><use xlink:href="#SvgjsG2664" transform="translate(336, 96) scale(2)" fill="rgba(201, 158, 16, 1)"></use><use xlink:href="#SvgjsG2665" transform="translate(336, 144) scale(2)" fill="rgba(201, 158, 16, 1)"></use><use xlink:href="#SvgjsG2666" transform="translate(336, 192) scale(2)" fill="rgba(201, 158, 16, 1)"></use><use xlink:href="#SvgjsG2664" transform="translate(336, 240) scale(2)" fill="rgba(201, 158, 16, 1)"></use><use xlink:href="#SvgjsG2665" transform="translate(336, 288) scale(2)" fill="rgba(201, 158, 16, 1)"></use><use xlink:href="#SvgjsG2666" transform="translate(336, 336) scale(2)" fill="rgba(201, 158, 16, 1)"></use><use xlink:href="#SvgjsG2664" transform="translate(336, 384) scale(2)" fill="rgba(201, 158, 16, 1)"></use><use xlink:href="#SvgjsG2665" transform="translate(336, 432) scale(2)" fill="rgba(201, 158, 16, 1)"></use><use xlink:href="#SvgjsG2666" transform="translate(384, 0) scale(2)" fill="rgba(201, 158, 16, 1)"></use><use xlink:href="#SvgjsG2664" transform="translate(384, 48) scale(2)" fill="rgba(201, 158, 16, 1)"></use><use xlink:href="#SvgjsG2665" transform="translate(384, 96) scale(2)" fill="rgba(201, 158, 16, 1)"></use><use xlink:href="#SvgjsG2666" transform="translate(384, 144) scale(2)" fill="rgba(201, 158, 16, 1)"></use><use xlink:href="#SvgjsG2664" transform="translate(384, 192) scale(2)" fill="rgba(201, 158, 16, 1)"></use><use xlink:href="#SvgjsG2665" transform="translate(384, 240) scale(2)" fill="rgba(201, 158, 16, 1)"></use><use xlink:href="#SvgjsG2666" transform="translate(384, 288) scale(2)" fill="rgba(201, 158, 16, 1)"></use><use xlink:href="#SvgjsG2664" transform="translate(384, 336) scale(2)" fill="rgba(201, 158, 16, 1)"></use><use xlink:href="#SvgjsG2665" transform="translate(384, 384) scale(2)" fill="rgba(201, 158, 16, 1)"></use><use xlink:href="#SvgjsG2666" transform="translate(384, 432) scale(2)" fill="rgba(201, 158, 16, 1)"></use><use xlink:href="#SvgjsG2664" transform="translate(432, 0) scale(2)" fill="rgba(201, 158, 16, 1)"></use><use xlink:href="#SvgjsG2665" transform="translate(432, 48) scale(2)" fill="rgba(201, 158, 16, 1)"></use><use xlink:href="#SvgjsG2666" transform="translate(432, 96) scale(2)" fill="rgba(201, 158, 16, 1)"></use><use xlink:href="#SvgjsG2664" transform="translate(432, 144) scale(2)" fill="rgba(201, 158, 16, 1)"></use><use xlink:href="#SvgjsG2665" transform="translate(432, 192) scale(2)" fill="rgba(201, 158, 16, 1)"></use><use xlink:href="#SvgjsG2666" transform="translate(432, 240) scale(2)" fill="rgba(201, 158, 16, 1)"></use><use xlink:href="#SvgjsG2664" transform="translate(432, 288) scale(2)" fill="rgba(201, 158, 16, 1)"></use><use xlink:href="#SvgjsG2665" transform="translate(432, 336) scale(2)" fill="rgba(201, 158, 16, 1)"></use><use xlink:href="#SvgjsG2666" transform="translate(432, 384) scale(2)" fill="rgba(201, 158, 16, 1)"></use><use xlink:href="#SvgjsG2664" transform="translate(432, 432) scale(2)" fill="rgba(201, 158, 16, 1)"></use></g></defs></svg>